<svg width="124" height="34" viewBox="0 0 124 34" fill="none" xmlns="http://www.w3.org/2000/svg">
<path fill-rule="evenodd" clip-rule="evenodd" d="M17.8115 2.64136C18.1481 2.53326 18.5141 2.56894 18.8237 2.74007C19.5012 3.11446 20.0165 3.76435 20.4 4.41461C20.7989 5.09107 21.1333 5.90188 21.3933 6.76325C21.9114 8.47869 22.1801 10.5461 21.9905 12.4332C21.9189 13.1455 21.2869 13.6646 20.5789 13.5926C19.8708 13.5205 19.3549 12.8847 19.4265 12.1724C19.5768 10.6773 19.3624 8.95662 18.9277 7.517C18.8076 7.11962 18.6743 6.75538 18.5336 6.43216C18.1129 7.51364 17.6801 8.70534 17.487 9.35166C17.2822 10.0373 16.5637 10.4262 15.8822 10.2201C15.2007 10.0141 14.8142 9.29121 15.019 8.60553C15.3945 7.34824 16.5277 4.38454 17.0434 3.31188C17.1973 2.99188 17.4749 2.74947 17.8115 2.64136Z" fill="#969FA4"/>
<path fill-rule="evenodd" clip-rule="evenodd" d="M13.743 8.57044C13.9994 7.75093 14.8675 7.29564 15.6821 7.55355C16.4863 7.80818 17.2718 8.14931 18.0357 8.54508L18.0402 8.5475C21.6088 10.4116 24.1965 13.5579 24.9025 16.8039C24.9131 16.8445 24.929 16.879 24.9453 16.9043C24.9608 16.9284 24.9719 16.9372 24.9721 16.9374L24.9814 16.944L27.6136 18.8468L27.6174 18.8496C28.5542 19.5312 28.7954 20.6468 28.7499 21.4511C28.7046 22.2533 28.3379 23.348 27.3046 23.9086L27.2976 23.9124C25.9504 24.6343 24.3235 24.858 21.8402 24.4152C21.8289 24.4132 21.8176 24.4111 21.8064 24.4088C21.7482 24.3971 21.687 24.3876 21.5814 24.3712L21.5734 24.37C21.4909 24.3572 21.3709 24.3386 21.2437 24.312C19.3352 24.0076 18.065 24.0415 17.28 24.254C16.5798 24.4437 16.3993 24.7225 16.3152 24.997C15.7289 26.946 16.2651 28.0908 16.993 29.645C17.109 29.8928 17.2299 30.151 17.3519 30.4245C17.7016 31.2083 17.3535 32.1289 16.5745 32.4807C15.7954 32.8325 14.8803 32.4823 14.5306 31.6985C14.4421 31.4999 14.341 31.2896 14.234 31.0669C13.4712 29.4797 12.4031 27.2571 13.3564 24.0922L13.3578 24.0876C13.8165 22.5815 14.973 21.6568 16.4763 21.2497C17.8912 20.8666 19.6834 20.9095 21.7719 21.2461C21.8025 21.2511 21.8329 21.2569 21.8631 21.2637C21.8967 21.2713 21.9442 21.2795 22.0465 21.2953C22.054 21.2964 22.0619 21.2977 22.0702 21.2989C22.153 21.3117 22.2718 21.3301 22.3946 21.3543C24.2161 21.6773 25.0992 21.5059 25.6523 21.2601L23.181 19.4736C22.5001 18.9871 22.0682 18.2612 21.8917 17.5146C21.8892 17.5043 21.8869 17.4938 21.8846 17.4834C21.4183 15.3127 19.5498 12.8425 16.6175 11.3099C15.9757 10.9776 15.3554 10.7118 14.7538 10.5214C13.9392 10.2634 13.4867 9.38996 13.743 8.57044Z" fill="#969FA4"/>
<path fill-rule="evenodd" clip-rule="evenodd" d="M10.0909 5.17723C10.057 5.63867 10.0212 6.08892 9.98712 6.50959C9.97488 6.66032 9.96304 6.80574 9.9516 6.94551C9.86952 7.95194 9.81136 8.66534 9.81136 8.95639C9.81136 9.53928 9.51376 10.2089 8.8368 10.5499C8.07952 10.9313 7.03395 11.5186 6.10057 12.2135C6.08781 12.223 6.0751 12.2325 6.06245 12.2419C6.32485 12.3134 6.53111 12.3884 6.66582 12.4418C7.34806 12.6999 7.65759 13.3177 7.70276 13.8182C7.74426 14.278 7.59222 14.771 7.22931 15.1366C7.18101 15.1853 7.12955 15.2307 7.07528 15.2724C6.80414 15.4813 5.85283 16.26 5.00755 17.48C4.57144 18.1095 4.17833 18.834 3.91405 19.6428C5.15943 19.4332 6.44671 20.6499 5.86119 22.0694C5.37473 23.3496 4.08827 27.1923 4.38185 31.148C4.44544 32.0048 3.80664 32.7512 2.95506 32.8151C2.10347 32.8791 1.36158 32.2364 1.29799 31.3796C1.09224 28.6072 1.53694 25.9366 2.04308 23.9334C1.84708 23.9113 1.65466 23.8565 1.47438 23.7693C0.942776 23.5122 0.513097 22.9606 0.490867 22.2528C0.35396 19.5156 1.37716 17.279 2.47066 15.7008C2.5432 15.5961 2.6163 15.4939 2.68967 15.3943C2.32857 15.3254 2.00514 15.1448 1.76595 14.9038C1.29689 14.4312 1.08955 13.6722 1.40158 12.952C1.97365 11.6171 3.18477 10.5137 4.26105 9.71249C5.107 9.08267 6.00302 8.5434 6.75692 8.13249C6.78496 7.7204 6.8255 7.22613 6.86801 6.70783C6.88022 6.55891 6.8926 6.40801 6.90489 6.25651C7.00026 5.08093 7.1025 3.7471 7.1415 2.59622C7.15207 2.21083 7.30006 1.8262 7.58582 1.52725C7.8451 1.256 8.132 1.14466 8.28744 1.09767C8.45128 1.04816 8.58976 1.03439 8.6616 1.02922C8.73312 1.02407 8.7948 1.02427 8.80624 1.0243L8.80768 1.02431C8.97808 1.02431 9.14728 1.05264 9.30848 1.10816C10.8398 1.63559 12.1449 2.73956 13.2689 3.96353C14.4028 5.19835 15.4709 6.68986 16.4839 8.14487C16.9738 8.84853 16.804 9.81865 16.1046 10.3116C15.4051 10.8045 14.441 10.6336 13.951 9.92989C12.9346 8.46993 11.9733 7.13758 10.9974 6.07487C10.6855 5.73521 10.3837 5.43622 10.0909 5.17723ZM5.53103 15.336C5.56169 15.3486 5.59322 15.3603 5.62561 15.3713C5.59686 15.3616 5.56838 15.3511 5.54025 15.3397C5.53723 15.3385 5.53416 15.3373 5.53103 15.336Z" fill="#969FA4"/>
<path d="M44.5748 12.4583C44.0322 13.0251 43.1281 13.0454 42.5453 12.5393C42.2238 12.2357 41.7817 12.0333 41.3196 12.0333C40.335 12.0333 39.5313 12.8632 39.5313 13.8956V16.8511H41.7817C42.5654 16.8511 43.2285 17.4988 43.2285 18.2882C43.2285 19.0979 42.5654 19.7457 41.7817 19.7457H39.5313V25.7983C39.5313 26.5877 38.8682 27.2558 38.0645 27.2558C37.2809 27.2558 36.6177 26.5877 36.6177 25.7983V25.7578C36.6177 23.855 36.6177 21.9522 36.6177 20.0696V13.8753C36.6177 11.2641 38.7477 9.13855 41.3196 9.13855C42.5051 9.13855 43.6304 9.58389 44.5145 10.3936C45.0771 10.9604 45.0972 11.8714 44.5748 12.4583Z" fill="#969FA4"/>
<path d="M49.8588 27.2759C46.6037 27.2759 43.9313 24.6039 43.9313 21.3043C43.9313 18.025 46.6037 15.3327 49.8588 15.3327C53.1139 15.3327 55.7864 18.025 55.8065 21.3245C55.7864 24.6241 53.1139 27.2759 49.8588 27.2759ZM49.8588 18.2679C48.191 18.2679 46.8247 19.6242 46.8247 21.3245C46.8247 23.0047 48.171 24.3812 49.8588 24.3812C51.5266 24.3812 52.893 23.0249 52.893 21.3245C52.8728 19.6242 51.5266 18.2679 49.8588 18.2679Z" fill="#969FA4"/>
<path d="M62.8997 27.2558C61.3325 27.2558 59.9058 26.6688 58.7805 25.5959C57.6553 24.4826 57.0124 23.0048 56.9521 21.4057C56.932 19.8268 57.4946 18.3085 58.6198 17.1749C59.7049 16.0414 61.1717 15.3936 62.7591 15.3329C64.3465 15.3126 65.8333 15.8997 66.9586 17.013C67.5212 17.5393 67.5413 18.4705 66.9988 19.0171C66.4562 19.5839 65.5521 19.6041 64.9894 19.0576C64.4067 18.4908 63.6231 18.1669 62.7993 18.1669C61.9754 18.1669 61.2119 18.5312 60.6292 19.1182C60.0866 19.7053 59.745 20.4947 59.7853 21.3247C59.7853 22.1344 60.1469 22.9442 60.7297 23.4907C61.3123 24.0777 62.096 24.4016 62.8997 24.3813C63.6833 24.3813 64.4067 24.0777 64.9693 23.5514C65.5119 23.0048 66.4361 23.0453 66.9586 23.6324C67.5011 24.1992 67.4609 25.1101 66.8782 25.6567C65.8133 26.6485 64.4268 27.2356 62.96 27.2558H62.8997Z" fill="#969FA4"/>
<path d="M74.4531 27.3975C71.3788 27.3975 68.847 24.7052 68.847 21.4259V16.8713C68.847 16.0818 69.4298 15.4341 70.1732 15.4341C70.9368 15.4341 71.6602 16.0818 71.6602 16.8713V21.4259C71.6602 23.1465 73.0868 24.523 74.4531 24.523C76.0606 24.523 77.2662 23.1465 77.2662 21.4259V17.0737C77.2662 16.264 78.09 15.6365 78.733 15.6365C79.4564 15.6365 80.0792 16.264 80.0792 17.0737V21.4259C80.0792 24.7052 77.5676 27.3975 74.4531 27.3975Z" fill="#969FA4"/>
<path d="M85.9872 27.3772C84.48 27.3772 82.9528 26.7497 82.1896 26.0209C81.6264 25.4946 81.5664 24.5837 82.1088 24.0169C82.6312 23.4299 83.5352 23.3894 84.0984 23.9157C84.52 24.3205 86.1072 24.8671 87.012 24.2801C87.2528 24.1384 87.3936 23.8752 87.3936 23.6121C87.3936 23.2882 87.112 23.0453 86.8712 22.944C86.6504 22.8226 86.288 22.8226 85.8464 22.8226C85.284 22.8226 84.6408 22.8024 83.9776 22.5595C82.752 22.1546 81.7472 20.8793 81.6672 19.6242C81.5464 18.1263 82.1896 17.1951 82.732 16.6688C83.9176 15.5757 85.6456 15.4138 86.8912 15.6162C87.8352 15.7781 88.5392 16.1223 89.1416 16.6688C89.704 17.1951 89.7648 18.1061 89.2424 18.6729C88.9408 18.9968 88.4784 19.1789 88.0368 19.1182C87.8152 19.0979 87.6144 19.017 87.4136 18.8955C87.092 18.6526 86.8512 18.4906 86.4288 18.4097C85.7256 18.2882 84.3992 18.3287 84.5 19.3611C84.52 19.4826 84.7408 19.7862 84.9224 19.8672C85.1632 19.9481 85.5048 19.9481 85.8864 19.9481C86.5096 19.9684 87.2728 19.9684 88.0568 20.3328C89.3624 20.9198 90.2064 22.2153 90.2064 23.5918C90.2064 24.8064 89.584 25.94 88.5792 26.6485C87.7752 27.195 86.8912 27.3772 85.9872 27.3772Z" fill="#969FA4"/>
<path d="M99.8104 12.4584C99.268 13.0251 98.364 13.0453 97.7816 12.5393C97.46 12.2356 97.0176 12.0332 96.5552 12.0332C95.5712 12.0332 94.7672 12.8632 94.7672 13.8955V16.851H97.0176C97.8016 16.851 98.4648 17.4987 98.4648 18.2882C98.4648 19.098 97.8016 19.7457 97.0176 19.7457H94.7672V25.7982C94.7672 26.5877 94.104 27.2557 93.3008 27.2557C92.5168 27.2557 91.8536 26.5877 91.8536 25.7982V25.7578C91.8536 23.8549 91.8536 21.9521 91.8536 20.0696V13.8753C91.8536 11.264 93.984 9.13855 96.5552 9.13855C97.7408 9.13855 98.8664 9.58389 99.7504 10.3936C100.313 10.9604 100.333 11.8713 99.8104 12.4584Z" fill="#969FA4"/>
<path d="M105.076 27.2759C101.821 27.2759 99.1488 24.6039 99.1488 21.3043C99.1488 18.025 101.821 15.3327 105.076 15.3327C108.331 15.3327 111.003 18.025 111.024 21.3245C111.003 24.6241 108.331 27.2759 105.076 27.2759ZM105.076 18.2679C103.408 18.2679 102.042 19.6242 102.042 21.3245C102.042 23.0047 103.388 24.3812 105.076 24.3812C106.764 24.3812 108.11 23.0249 108.11 21.3245C108.11 19.6242 106.764 18.2679 105.076 18.2679Z" fill="#969FA4"/>
<path d="M122.798 24.9076C123.321 25.4541 123.301 26.3447 122.758 26.8913C122.497 27.1545 122.135 27.2759 121.794 27.2759C121.432 27.2759 121.09 27.1343 120.81 26.8509L117.494 23.3893L114.238 26.7901C113.978 27.0735 113.616 27.2152 113.254 27.2152C112.933 27.2152 112.571 27.0938 112.29 26.8306C111.747 26.2841 111.727 25.3934 112.27 24.8468L115.605 21.365L112.25 17.8631C111.727 17.2963 111.727 16.4056 112.29 15.8793C112.832 15.3327 113.716 15.353 114.258 15.8995L117.514 19.3206L120.85 15.8388C121.372 15.2922 122.236 15.272 122.818 15.8186C123.361 16.3449 123.382 17.2153 122.838 17.8023L119.463 21.3448L122.798 24.9076Z" fill="#969FA4"/>
</svg>
